Description

Sinopse e detalhes

Carl Brashear (Cuba Gooding Jr.) veio de uma humilde família negra, que vivia em uma área rural em Sonora, Kentucky. Ainda garoto, no início dos anos 40, já adorava mergulhar, sendo que quando jovem se alistou na Marinha esperando se tornar um mergulhador. Inicialmente Carl trabalha como cozinheiro que era uma das poucas tarefas permitidas a um negro na época. Quando resolve mergulhar no mar em uma sexta-feira acaba sendo preso, pois os negros só podiam nadar na terça-feira, mas sua rapidez ao nadar é vista por todos e assim se torna um "nadador de resgate", por iniciativa do capitão Pullman (Powers Boothe). Quando Brashear solicita a escola de mergulhadores encontra o comandante Billy Sunday (Robert De Niro), um instrutor de mergulho áspero e tirânico que tem absoluto poder sobre suas decisões. No princípio Sunday faz muito pouco para encorajar as ambições de Brashear e o aspirante a mergulhador descobre que o racismo no exército é um fato quando os outros aspirantes brancos - exceto Snowhill (Michael Rapaport), que por isto foi perseguido por Sunday - se negam a compartilhar um alojamento com um negro. Mas a coragem e determinação de Brashear impressionam Sunday e os dois se tornam amigos quando Brashear tem de lutar contra o preconceito e a burocracia militar, que quer acabar com seus sonhos de se tornar comandante e reformá-lo.


Format : Matroska
Format version : Version 2
File size : 627 MiB
Duration : 2h 8mn
Overall bit rate : 680 Kbps
Encoded date : UTC 2013-05-07 10:02:47
Writing application : mkvmerge v5.8.0 ('No Sleep / Pillow') built on Sep 2 2012 15:37:04
Writing library : libebml v1.2.3 + libmatroska v1.3.0

Video
ID : 1
Format : AVC
Format/Info : Advanced Video Codec
Format profile : High@L4.1
Format settings, CABAC : Yes
Format settings, ReFrames : 4 frames
Muxing mode : Header stripping
Codec ID : V_MPEG4/ISO/AVC
Duration : 2h 8mn
Bit rate : 474 Kbps
Width : 720 pixels
Height : 304 pixels
Display aspect ratio : 2.35:1
Frame rate mode : Constant
Frame rate : 23.976 fps
Color space : YUV
Chroma subsampling : 4:2:0
Bit depth : 8 bits
Scan type : Progressive
Bits/(Pixel*Frame) : 0.090
Stream size : 437 MiB (70%)
Title : Homens de Honra ( by fantasma )
Writing library : x264 core 130 r2273 b3065e6
Encoding settings : cabac=1 / ref=3 / deblock=1:0:0 / analyse=0x3:0x113 / me=hex / subme=7 / psy=1 / psy_rd=1.00:0.00 / mixed_ref=1 / me_range=16 / chroma_me=1 / trellis=1 / 8x8dct=1 / cqm=0 / deadzone=21,11 / fast_pskip=1 / chroma_qp_offset=-2 / threads=3 / lookahead_threads=1 / sliced_threads=0 / nr=0 / decimate=1 / interlaced=0 / bluray_compat=0 / constrained_intra=0 / bframes=3 / b_pyramid=2 / b_adapt=1 / b_bias=0 / direct=1 / weightb=1 / open_gop=0 / weightp=2 / keyint=240 / keyint_min=23 / scenecut=40 / intra_refresh=0 / rc_lookahead=40 / rc=crf / mbtree=1 / crf=23.0 / qcomp=0.60 / qpmin=0 / qpmax=69 / qpstep=4 / vbv_maxrate=62500 / vbv_bufsize=78125 / crf_max=0.0 / nal_hrd=none / ip_ratio=1.40 / aq=1:1.00
Language : Portuguese
Default : Yes
Forced : No

Audio
ID : 2
Format : AC-3
Format/Info : Audio Coding 3
Format profile : Dolby Digital
Mode extension : CM (complete main)
Format settings, Endianness : Big
Muxing mode : Header stripping
Codec ID : A_AC3
Duration : 2h 8mn
Bit rate mode : Constant
Bit rate : 192 Kbps
Channel(s) : 2 channels
Channel positions : Front: L R
Sampling rate : 48.0 KHz
Bit depth : 16 bits
Compression mode : Lossy
Delay relative to video : 29ms
Stream size : 177 MiB (28%)
Title : by fantasma
Language : Portuguese
Default : Yes
Forced : No

Text #1
ID : 3
Format : VobSub
Muxing mode : zlib
Codec ID : S_VOBSUB
Codec ID/Info : The same subtitle format used on DVDs
Title : by fantasma
Language : Portuguese
Default : No
Forced : No

Text #2
ID : 4
Format : VobSub
Muxing mode : zlib
Codec ID : S_VOBSUB
Codec ID/Info : The same subtitle format used on DVDs
Title : by fantasma
Language : Spanish
Default : No
Forced : No

Text #3
ID : 5
Format : VobSub
Muxing mode : zlib
Codec ID : S_VOBSUB
Codec ID/Info : The same subtitle format used on DVDs
Title : by fantasma
Language : English
Default : No
Forced : No

Text #4
ID : 6
Format : UTF-8
Codec ID : S_TEXT/UTF8
Codec ID/Info : UTF-8 Plain Text
Title : Credito
Language : Portuguese
Default : Yes
Forced : No

Menu
00:00:00.000 : en:Chapter 01
00:09:47.634 : en:Chapter 02
00:14:59.934 : en:Chapter 03
00:21:38.601 : en:Chapter 04
00:30:49.435 : en:Chapter 05
00:36:20.303 : en:Chapter 06
00:42:53.104 : en:Chapter 07
00:50:46.638 : en:Chapter 08
01:01:49.772 : en:Chapter 09
01:10:40.939 : en:Chapter 10
01:19:27.106 : en:Chapter 11
01:25:24.473 : en:Chapter 12
01:34:38.606 : en:Chapter 13
01:41:41.773 : en:Chapter 14
01:49:17.607 : en:Chapter 15